<svg width="25" height="25" viewBox="0 0 25 25" fill="none" xmlns="http://www.w3.org/2000/svg">
<path d="M24.875 12.436L22.13 9.29727L22.5125 5.14602L18.4512 4.22352L16.325 0.634766L12.5 2.27727L8.675 0.634766L6.54875 4.22352L2.4875 5.13477L2.87 9.29727L0.125 12.436L2.87 15.5748L2.4875 19.7373L6.54875 20.6598L8.675 24.2598L12.5 22.606L16.325 24.2485L18.4512 20.6598L22.5125 19.7373L22.13 15.586L24.875 12.436ZM20.4312 14.101L19.8012 14.8323L19.8912 15.7885L20.0937 17.9823L17.9562 18.466L17.0112 18.6798L16.5162 19.5123L15.4025 21.4023L13.4 20.536L12.5 20.1535L11.6112 20.536L9.60875 21.4023L8.495 19.5235L8 18.691L7.055 18.4773L4.9175 17.9935L5.12 15.7885L5.21 14.8323L4.58 14.101L3.12875 12.4473L4.58 10.7823L5.21 10.051L5.10875 9.08352L4.90625 6.90102L7.04375 6.41727L7.98875 6.20352L8.48375 5.37102L9.5975 3.48102L11.6 4.34727L12.5 4.72977L13.3887 4.34727L15.3912 3.48102L16.505 5.37102L17 6.20352L17.945 6.41727L20.0825 6.90102L19.88 9.09477L19.79 10.051L20.42 10.7823L21.8712 12.436L20.4312 14.101Z" fill="#5C6181"/>
<path d="M10.3512 14.4158L7.74123 11.7945L6.07623 13.4708L10.3512 17.757L18.6087 9.47703L16.9437 7.80078L10.3512 14.4158Z" fill="#5C6181"/>
</svg>
